<svg width="55" height="28" viewBox="0 0 55 28" fill="none" xmlns="http://www.w3.org/2000/svg">
<path d="M1.71602 22.4276C1.47011 22.0232 1.14224 21.3772 0.939734 20.8989C-0.241568 18.0979 -0.294606 15.1983 0.698652 12.417C1.79317 9.36456 3.88576 7.03205 6.5907 5.83868C9.98996 4.34449 13.746 4.63544 17.0054 6.61289C19.0739 7.826 20.5397 9.69989 21.6535 12.3529C21.7933 12.6932 21.9187 13.0532 22.0441 13.3639L1.71602 22.4276ZM8.50489 10.341C6.08925 11.4012 4.84527 13.7189 5.10563 16.4311L15.3275 11.9288C13.5676 9.81825 11.2822 9.118 8.50489 10.341ZM16.6004 20.1346C16.5956 20.1346 16.5956 20.1395 16.5956 20.1395L16.3835 19.9915C15.7711 21.0025 14.8212 21.826 13.6207 22.3586C11.3352 23.3744 9.21849 23.1131 7.69486 21.7471L7.55503 21.9641C7.55503 21.9641 7.55503 21.9591 7.55021 21.9591L4.95616 25.9288C5.60226 26.3875 6.29176 26.7721 7.015 27.0828C9.87906 28.3008 12.8106 28.2416 15.6988 26.9595C17.7866 26.0324 19.4259 24.6221 20.5445 22.832L16.6004 20.1346ZM29.1463 0V22.0627L32.5022 23.4533L30.5977 28L26.8946 26.422C26.0653 26.0521 25.4964 25.49 25.0721 24.8538C24.6622 24.2078 24.3585 23.3153 24.3585 22.1219V0H29.1463ZM37.8349 16.4459C37.8349 14.5671 38.6498 12.8806 39.9324 11.7365L36.4897 7.8112C34.156 9.9218 32.6854 13.0039 32.6854 16.4361C32.6806 19.8732 34.1512 22.9602 36.4801 25.0708L39.9179 21.1455C38.6402 19.9965 37.8349 18.3198 37.8349 16.4459ZM43.9488 22.7038C43.2738 22.7038 42.618 22.5854 42.0105 22.3783L40.3663 27.3737C41.4898 27.7584 42.6903 27.9704 43.944 27.9704C49.3924 27.9753 53.9392 24.0204 54.9952 18.7686L49.9421 17.7133C49.3683 20.5685 46.9045 22.7087 43.9488 22.7038ZM43.9633 4.92145C42.7144 4.92145 41.5139 5.12857 40.3904 5.50828L42.0201 10.5086C42.6325 10.3015 43.2834 10.1881 43.9584 10.1881C46.9189 10.193 49.3876 12.3431 49.9469 15.2032L55 14.1578C53.9633 8.89609 49.4165 4.92638 43.9633 4.92145Z" fill="#9E9E9E"/>
</svg>
