<svg width="300" height="21" viewBox="0 0 300 21" fill="none" xmlns="http://www.w3.org/2000/svg">
<path d="M1.88636 3.36362L5.34091 13.1591H5.47727L8.93182 3.36362H10.4091L6.13636 15H4.68182L0.409091 3.36362H1.88636ZM13.6307 3.36362V15H12.2216V3.36362H13.6307ZM22.8196 6.27271C22.7514 5.69695 22.4749 5.24998 21.9901 4.9318C21.5052 4.61362 20.9105 4.45453 20.206 4.45453C19.6908 4.45453 19.2401 4.53786 18.8537 4.70453C18.4711 4.8712 18.1719 5.10036 17.956 5.39203C17.7438 5.6837 17.6378 6.01514 17.6378 6.38635C17.6378 6.69695 17.7116 6.964 17.8594 7.18748C18.0109 7.40718 18.2041 7.59089 18.4389 7.73862C18.6738 7.88256 18.92 8.00188 19.1776 8.09658C19.4351 8.18748 19.6719 8.26135 19.8878 8.31817L21.0696 8.63635C21.3726 8.71589 21.7098 8.82574 22.081 8.96589C22.456 9.10605 22.8139 9.29733 23.1548 9.53976C23.4995 9.77839 23.7836 10.0852 24.0071 10.4602C24.2306 10.8352 24.3423 11.2954 24.3423 11.8409C24.3423 12.4697 24.1776 13.0379 23.848 13.5454C23.5223 14.053 23.045 14.4564 22.4162 14.7557C21.7912 15.0549 21.0317 15.2045 20.1378 15.2045C19.3045 15.2045 18.5829 15.0701 17.973 14.8011C17.367 14.5322 16.8897 14.1572 16.5412 13.6761C16.1965 13.1951 16.0014 12.6363 15.956 12H17.4105C17.4484 12.4394 17.5961 12.803 17.8537 13.0909C18.1151 13.375 18.4446 13.5871 18.8423 13.7273C19.2438 13.8636 19.6757 13.9318 20.1378 13.9318C20.6757 13.9318 21.1586 13.8447 21.5866 13.6704C22.0147 13.4924 22.3537 13.2462 22.6037 12.9318C22.8537 12.6136 22.9787 12.2424 22.9787 11.8182C22.9787 11.4318 22.8707 11.1174 22.6548 10.875C22.4389 10.6326 22.1548 10.4356 21.8026 10.2841C21.4503 10.1326 21.0696 9.99998 20.6605 9.88635L19.2287 9.47726C18.3196 9.21589 17.5999 8.84279 17.0696 8.35794C16.5393 7.87309 16.2741 7.23862 16.2741 6.45453C16.2741 5.80301 16.4503 5.23483 16.8026 4.74998C17.1586 4.26135 17.6359 3.88256 18.2344 3.61362C18.8366 3.34089 19.509 3.20453 20.2514 3.20453C21.0014 3.20453 21.6681 3.339 22.2514 3.60794C22.8348 3.87309 23.2969 4.23673 23.6378 4.69885C23.9825 5.16097 24.1643 5.68559 24.1832 6.27271H22.8196ZM34.2955 3.36362H35.7045V11.0682C35.7045 11.8636 35.517 12.5738 35.142 13.1988C34.7708 13.8201 34.2462 14.3106 33.5682 14.6704C32.8902 15.0265 32.0947 15.2045 31.1818 15.2045C30.2689 15.2045 29.4735 15.0265 28.7955 14.6704C28.1174 14.3106 27.5909 13.8201 27.2159 13.1988C26.8447 12.5738 26.6591 11.8636 26.6591 11.0682V3.36362H28.0682V10.9545C28.0682 11.5227 28.1932 12.0284 28.4432 12.4716C28.6932 12.911 29.0492 13.2576 29.5114 13.5113C29.9773 13.7613 30.5341 13.8863 31.1818 13.8863C31.8295 13.8863 32.3864 13.7613 32.8523 13.5113C33.3182 13.2576 33.6742 12.911 33.9205 12.4716C34.1705 12.0284 34.2955 11.5227 34.2955 10.9545V3.36362ZM38.9957 15H37.5185L41.7912 3.36362H43.2457L47.5185 15H46.0412L42.5639 5.20453H42.473L38.9957 15ZM39.5412 10.4545H45.4957V11.7045H39.5412V10.4545ZM49.331 15V3.36362H50.7401V13.75H56.1491V15H49.331Z" fill="#959595"/>
<path d="M62.4332 15V3.36362H67.0241C67.9067 3.36362 68.6586 3.53218 69.2798 3.8693C69.901 4.20264 70.3745 4.66665 70.7003 5.26135C71.0298 5.85226 71.1946 6.53408 71.1946 7.3068C71.1946 8.07953 71.0279 8.76135 70.6946 9.35226C70.3613 9.94317 69.8783 10.4034 69.2457 10.7329C68.617 11.0625 67.8556 11.2273 66.9616 11.2273H64.0355V9.25567H66.5639C67.0374 9.25567 67.4276 9.17423 67.7344 9.01135C68.045 8.84468 68.276 8.61551 68.4276 8.32385C68.5829 8.02839 68.6605 7.68938 68.6605 7.3068C68.6605 6.92044 68.5829 6.58332 68.4276 6.29544C68.276 6.00377 68.045 5.77839 67.7344 5.6193C67.4238 5.45642 67.0298 5.37498 66.5526 5.37498H64.8935V15H62.4332ZM73.4545 15H70.8182L74.8352 3.36362H78.0057L82.017 15H79.3807L76.4659 6.02271H76.375L73.4545 15ZM73.2898 10.4261H79.517V12.3466H73.2898V10.4261ZM81.5483 3.36362H84.304L86.9574 8.37498H87.071L89.7244 3.36362H92.4801L88.2358 10.8863V15H85.7926V10.8863L81.5483 3.36362Z" fill="white"/>
<path fill-rule="evenodd" clip-rule="evenodd" d="M102.203 13.8617L102.199 13.8662L102.196 13.8707C102.018 14.1227 101.62 14.1968 101.308 13.9765C101.058 13.8002 100.983 13.4074 101.196 13.097C101.513 12.6927 101.743 12.2201 101.894 11.7581C102.052 11.2771 102.125 10.7305 102.122 10.1944C102.119 9.65838 102.04 9.11262 101.878 8.63333C101.722 8.17295 101.486 7.7028 101.165 7.30194C100.949 6.99377 101.02 6.60017 101.268 6.42122C101.577 6.19769 101.976 6.26749 102.157 6.51761L102.16 6.5221L102.164 6.5265C102.564 7.05405 102.892 7.64018 103.088 8.21523C103.294 8.89171 103.426 9.54608 103.429 10.1875C103.433 10.8624 103.368 11.5013 103.121 12.1302C102.851 12.8151 102.59 13.34 102.203 13.8617ZM105.095 15.1145L105.103 15.1034L105.11 15.0919C105.997 13.6713 106.509 11.957 106.499 10.1711C106.489 8.3857 105.96 6.67737 105.059 5.26646C104.863 4.95669 104.951 4.59045 105.28 4.35261C105.502 4.19288 105.917 4.24944 106.163 4.57952C107.181 6.19416 107.795 8.146 107.806 10.1642C107.817 12.2512 107.224 14.1397 106.222 15.7661C105.991 16.085 105.636 16.1743 105.33 15.9936C104.999 15.7507 104.938 15.337 105.095 15.1145ZM110.286 2.45724L110.295 2.47449L110.305 2.49097C111.684 4.73919 112.45 7.33243 112.465 10.1394C112.48 12.945 111.742 15.5451 110.388 17.8072C110.181 18.1409 109.83 18.235 109.475 18.0697C109.152 17.859 109.065 17.5098 109.234 17.1571C110.385 15.1125 111.101 12.703 111.088 10.1467C111.074 7.60176 110.408 5.19618 109.157 3.15136C108.988 2.80221 109.071 2.45448 109.391 2.24137C109.776 2.05725 110.152 2.1922 110.286 2.45724ZM114.369 0.317663L114.375 0.329447L114.382 0.340883C116.053 3.22941 117.035 6.53184 117.054 10.1149C117.073 13.6943 116.128 17.0039 114.491 19.9079C114.283 20.2378 113.934 20.3302 113.581 20.1656C113.259 19.9556 113.171 19.608 113.338 19.2564C114.915 16.5648 115.764 13.4463 115.747 10.1219C115.729 6.78887 114.772 3.68251 113.243 1.0174C113.051 0.628355 113.186 0.247321 113.454 0.111831C113.846 -0.0870443 114.232 0.0479557 114.369 0.317663Z" fill="white"/>
</svg>
